<?xml version="1.0" standalone="no"?>
<!DOCTYPE svg PUBLIC "-//W3C//DTD SVG 20010904//EN"
 "http://www.w3.org/TR/2001/REC-SVG-20010904/DTD/svg10.dtd">
<svg version="1.0" xmlns="http://www.w3.org/2000/svg"
 width="896.000000pt" height="896.000000pt" viewBox="0 0 896.000000 896.000000"
 preserveAspectRatio="xMidYMid meet">
<metadata>
Created by potrace 1.11, written by Peter Selinger 2001-2013
</metadata>
<g transform="translate(0.000000,896.000000) scale(0.100000,-0.100000)"
fill="#000000" stroke="none">
<path d="M0 4480 l0 -2560 798 0 c439 0 801 2 804 5 3 3 2 24 -2 45 -4 22 -4
42 0 45 4 3 4 22 0 44 -4 22 -4 45 1 52 4 7 5 17 3 21 -3 5 -5 45 -4 91 0 45
0 91 0 102 -1 11 -1 25 -1 30 3 137 3 207 -1 211 -3 3 -2 19 2 37 4 18 4 41 0
52 -4 11 -5 24 -3 29 8 12 6 303 -1 315 -4 5 -2 12 2 15 5 3 6 26 2 51 -4 25
-4 48 0 50 4 3 4 23 0 45 -4 22 -4 42 0 45 4 3 4 23 0 45 -4 22 -4 42 0 45 4
3 4 22 0 44 -4 22 -4 45 1 52 4 7 5 17 3 21 -3 5 -5 45 -4 91 0 45 0 91 0 102
-1 11 -1 25 -1 30 0 6 0 73 0 150 0 77 1 151 1 165 4 120 4 320 -1 320 -3 0
-3 22 1 49 3 27 3 57 0 66 -4 10 -4 37 0 59 3 23 3 57 0 76 -3 19 -3 51 0 70
3 19 3 58 0 85 -3 28 -3 65 0 84 l5 35 25 -33 c14 -17 40 -48 57 -69 18 -20
33 -40 33 -44 0 -4 8 -15 18 -25 10 -10 36 -40 58 -68 21 -27 44 -55 49 -61 6
-6 21 -26 35 -44 14 -19 32 -41 40 -50 8 -8 26 -31 40 -50 13 -19 33 -44 43
-55 11 -11 40 -47 65 -80 26 -33 51 -65 57 -72 5 -7 20 -25 32 -40 55 -68 144
-179 155 -192 6 -7 27 -34 46 -60 20 -25 40 -51 46 -57 6 -6 22 -26 36 -44 14
-19 35 -45 47 -59 13 -14 26 -30 30 -36 5 -5 24 -30 43 -55 19 -25 38 -49 43
-55 4 -5 17 -22 30 -36 12 -14 33 -41 47 -59 14 -19 32 -41 40 -50 9 -9 29
-34 45 -55 16 -22 34 -44 40 -50 6 -5 24 -29 42 -53 l31 -43 38 48 c22 26 41
50 44 53 3 3 32 39 65 80 32 41 64 80 70 87 12 15 20 25 65 83 19 25 37 47 40
50 3 3 21 25 40 50 49 64 48 62 76 95 14 17 53 65 87 109 34 43 76 95 92 115
17 21 46 57 65 81 19 24 58 71 85 105 28 34 61 77 75 95 31 41 71 91 87 108 7
7 34 41 60 75 26 34 52 67 58 74 11 14 9 11 90 113 126 157 141 174 147 158 3
-7 2 -24 -2 -38 -3 -14 -3 -42 1 -63 3 -20 3 -39 -1 -42 -4 -2 -4 -25 0 -50 4
-25 4 -45 1 -45 -7 0 -4 -118 3 -137 3 -7 1 -15 -3 -17 -5 -3 -5 -23 -1 -45 4
-22 4 -45 -1 -52 -4 -7 -5 -17 -3 -21 3 -5 5 -45 4 -91 0 -45 0 -91 0 -102 1
-11 1 -24 1 -30 0 -5 0 -73 0 -150 0 -77 -1 -151 -1 -165 -5 -142 -3 -320 3
-320 5 0 6 -4 3 -9 -3 -4 -6 -30 -6 -57 0 -27 0 -85 -1 -129 0 -44 0 -89 1
-100 1 -11 1 -27 1 -35 -3 -122 -1 -311 3 -319 4 -5 2 -12 -2 -15 -5 -3 -6
-26 -2 -51 4 -25 4 -48 0 -50 -4 -3 -4 -23 0 -45 4 -22 4 -42 0 -45 -4 -3 -4
-23 0 -45 4 -22 4 -42 0 -45 -4 -3 -4 -22 0 -44 4 -22 4 -45 -1 -52 -4 -7 -5
-17 -3 -21 3 -5 5 -43 4 -86 -1 -84 -1 -101 0 -134 0 -13 -1 -65 -2 -116 l-3
-92 801 0 802 0 4 46 c2 25 0 47 -3 50 -4 2 -3 21 0 41 4 21 4 55 0 76 -3 21
-3 40 1 42 4 3 4 22 0 44 -4 22 -4 45 0 51 4 6 4 31 0 56 -4 24 -4 47 0 49 4
2 4 25 0 50 -4 25 -4 48 0 50 4 3 4 23 0 45 -4 22 -4 42 0 45 4 3 4 23 0 45
-4 22 -4 42 0 45 4 3 4 22 0 44 -4 22 -4 45 0 51 4 6 4 31 0 56 -4 24 -4 47 0
49 4 2 4 25 0 50 -4 25 -4 48 0 50 4 3 4 22 1 42 -4 21 -4 55 -1 75 4 21 5 40
2 43 -3 3 -4 38 -3 77 1 40 2 82 1 93 -1 11 -1 25 -1 30 3 137 3 207 -1 211
-3 3 -2 19 2 37 4 18 4 41 0 52 -4 11 -5 26 -3 32 7 17 9 303 3 303 -6 0 -4
119 3 126 2 2 1 24 -3 47 l-8 42 24 -30 c23 -28 45 -58 106 -147 14 -20 39
-54 56 -76 18 -22 32 -44 32 -50 0 -6 4 -12 8 -14 4 -1 41 -50 82 -108 41 -58
77 -107 80 -110 3 -3 10 -13 15 -22 24 -40 179 -253 187 -256 4 -2 8 -8 8 -13
0 -8 105 -158 184 -261 20 -25 36 -51 36 -56 0 -6 3 -12 8 -14 7 -3 163 -218
187 -256 6 -10 12 -19 15 -22 3 -3 39 -52 80 -110 41 -58 77 -107 80 -110 3
-3 10 -12 15 -21 6 -9 30 -45 55 -79 25 -34 50 -70 55 -79 6 -9 12 -18 15 -21
18 -18 90 -121 90 -129 0 -5 4 -11 8 -13 5 -1 28 -30 50 -63 23 -33 61 -87 85
-120 l43 -60 797 -3 c684 -2 797 0 797 12 0 8 -4 16 -8 18 -5 2 -137 174 -293
383 -156 209 -286 382 -289 385 -3 3 -30 39 -60 80 -30 41 -57 77 -60 80 -3 3
-84 111 -180 240 -96 129 -177 237 -180 240 -3 3 -193 256 -423 563 l-417 558
114 152 c62 83 121 160 130 169 9 10 16 20 16 23 0 8 103 139 112 143 5 2 8 8
8 12 0 5 45 68 100 140 55 72 100 133 100 135 0 3 9 15 19 27 18 21 87 112
471 625 69 91 131 172 138 179 6 7 12 15 12 19 0 7 103 139 112 143 5 2 8 8 8
12 0 5 45 68 100 140 55 72 100 135 100 140 0 4 3 10 8 12 4 2 33 37 64 78 31
41 64 83 72 93 9 9 16 19 16 21 0 3 50 70 110 150 l111 146 -800 0 -801 0 -30
-42 c-17 -24 -54 -76 -83 -117 -28 -40 -69 -95 -89 -122 -21 -27 -38 -51 -38
-54 0 -3 -5 -11 -11 -18 -6 -7 -60 -82 -120 -167 -61 -85 -119 -166 -129 -180
-10 -14 -46 -63 -79 -110 -33 -47 -67 -94 -75 -105 -19 -27 -282 -395 -298
-418 -7 -11 -21 -28 -30 -39 -10 -11 -20 -28 -23 -38 -3 -10 -12 -21 -20 -24
-8 -3 -15 -10 -15 -16 0 -6 -5 -16 -11 -23 -9 -10 -264 -366 -301 -421 -18
-25 -68 -95 -95 -131 -13 -17 -40 -55 -60 -85 -21 -30 -40 -57 -44 -60 -3 -3
-11 -15 -18 -27 -17 -32 -28 -28 -33 11 -2 20 0 32 6 29 5 -3 6 -1 3 5 -4 5
-7 34 -7 64 1 81 1 88 1 168 0 41 0 82 0 90 0 8 -1 29 0 45 0 17 0 35 0 40 0
6 0 24 0 40 -1 17 -1 38 -1 48 1 23 1 83 0 105 0 9 0 33 1 52 0 33 0 42 -2 73
0 6 0 30 0 52 1 22 1 48 1 58 -1 22 -1 82 0 105 0 9 0 33 -1 52 0 19 0 42 0
50 1 8 1 29 0 45 0 17 0 37 0 45 0 8 0 62 0 120 0 58 0 116 1 130 1 14 2 32 1
40 0 8 0 49 0 90 0 41 0 82 0 90 0 8 -1 29 0 45 0 37 0 43 0 80 -1 17 -1 38
-1 48 1 23 1 83 0 105 0 9 0 33 1 52 0 33 0 42 -2 73 0 6 0 32 0 57 0 25 1 55
1 68 l0 22 -800 0 -800 0 -17 -27 c-10 -16 -21 -32 -26 -38 -25 -32 -187 -279
-187 -287 0 -4 -3 -8 -8 -8 -4 0 -16 -16 -27 -36 -10 -19 -29 -48 -42 -62 -13
-15 -23 -30 -23 -34 0 -4 -18 -33 -40 -65 -22 -32 -45 -65 -50 -73 -6 -8 -37
-55 -70 -104 -33 -48 -60 -92 -60 -97 0 -5 -3 -9 -8 -9 -4 0 -16 -17 -27 -37
-11 -20 -24 -41 -30 -47 -12 -14 -89 -127 -94 -141 -2 -5 -21 -33 -43 -62 -21
-29 -38 -56 -38 -61 0 -4 -8 -17 -18 -28 -9 -10 -37 -50 -62 -89 -24 -38 -47
-72 -50 -75 -3 -3 -21 -30 -40 -60 -19 -30 -38 -59 -43 -65 -25 -31 -187 -279
-187 -287 0 -4 -3 -8 -8 -8 -4 0 -16 -16 -27 -36 -10 -19 -28 -45 -38 -57 -21
-25 -19 -27 -70 53 -13 19 -69 105 -126 190 -57 85 -116 173 -130 195 -14 22
-28 42 -31 45 -4 3 -17 23 -30 45 -13 22 -30 46 -37 53 -7 7 -13 17 -13 22 0
5 -6 15 -13 22 -7 7 -36 49 -65 93 -28 44 -56 87 -62 95 -5 8 -29 44 -52 80
-24 36 -45 67 -48 70 -4 3 -17 23 -30 45 -13 22 -30 46 -37 53 -7 7 -13 17
-13 22 0 5 -6 15 -13 22 -7 7 -24 31 -37 53 -13 22 -27 42 -30 45 -3 3 -21 30
-40 60 -19 30 -38 57 -42 58 -5 2 -8 10 -8 18 0 8 -3 14 -8 14 -4 0 -16 17
-27 37 -11 20 -25 41 -30 47 -6 6 -22 29 -35 51 -13 22 -30 46 -37 53 -7 7
-13 17 -13 22 0 5 -6 15 -13 22 -10 11 -39 53 -127 188 -5 8 -25 38 -43 65
l-34 50 -801 3 -802 2 0 -2560z"/>
</g>
</svg>
